<?xml version="1.0" encoding="UTF-8"?> <svg xmlns="http://www.w3.org/2000/svg" xmlns:xlink="http://www.w3.org/1999/xlink" id="Слой_1" data-name="Слой 1" viewBox="0 0 350.2 79.89"> <defs> <style>.cls-1,.cls-3{fill:url(#Безымянный_градиент_26);}.cls-1{clip-rule:evenodd;}.cls-2,.cls-3{fill-rule:evenodd;}.cls-2{fill:url(#Безымянный_градиент_31);}.cls-4{clip-path:url(#clip-path);}.cls-5{fill:url(#Безымянный_градиент_26-3);}.cls-6{fill:#02154c;}</style> <linearGradient id="Безымянный_градиент_26" x1="44.81" y1="43.93" x2="29.45" y2="32.51" gradientUnits="userSpaceOnUse"> <stop offset="0" stop-color="#0056ff"></stop> <stop offset="1" stop-color="#00c3ff"></stop> </linearGradient> <linearGradient id="Безымянный_градиент_31" x1="-2.58" y1="1.42" x2="56.04" y2="54.77" gradientUnits="userSpaceOnUse"> <stop offset="0" stop-color="#0047ff"></stop> <stop offset="1" stop-color="#0091e0"></stop> </linearGradient> <clipPath id="clip-path"> <path class="cls-1" d="M33.66,15.42C28.2,22.69,19.94,32.94,19.94,38.76A13.74,13.74,0,0,0,33.64,52.5h0A13.74,13.74,0,0,0,47.42,38.76c0-5.83-8.22-16-13.76-23.34Z"></path> </clipPath> <linearGradient id="Безымянный_градиент_26-3" x1="45.63" y1="42.83" x2="30.26" y2="31.42" xlink:href="#Безымянный_градиент_26"></linearGradient> </defs> <title>лого_цветной</title> <path class="cls-2" d="M33.68.59A33.48,33.48,0,0,0,.2,34.07c0,19.75,20.56,33.51,33.56,45.82,13-12.32,33.4-26,33.4-45.82A33.48,33.48,0,0,0,33.68.59Zm0,60.67A27.3,27.3,0,1,1,61,34,27.3,27.3,0,0,1,33.68,61.26Z"></path> <path class="cls-3" d="M33.66,15.42C28.2,22.69,19.94,32.94,19.94,38.76A13.74,13.74,0,0,0,33.64,52.5h0A13.74,13.74,0,0,0,47.42,38.76c0-5.83-8.22-16-13.76-23.34Z"></path> <g class="cls-4"> <rect class="cls-5" x="19.94" y="15.42" width="27.49" height="37.08"></rect> </g> <path class="cls-6" d="M100.89,42.36h-11l-2.1,6.28h-6.7L92.43,18.07h5.84l11.44,30.57H103l-2.12-6.28Zm-9.34-5.12h7.64L95.35,25.79l-3.8,11.45Z"></path> <path class="cls-6" d="M111.22,38.93a11.6,11.6,0,0,1,2.38-7.71,8.11,8.11,0,0,1,6.55-2.83A7.23,7.23,0,0,1,126,30.94l.4-2.16h5.33V57.41H125.6V47.69a7.32,7.32,0,0,1-5.5,2.16A8.05,8.05,0,0,1,113.63,47c-1.6-1.92-2.41-4.6-2.41-8Zm5.31.38a6.16,6.16,0,0,0,1.25,4.18,4.42,4.42,0,0,0,3.52,1.43c2,0,3.46-.63,4.3-1.88V35.12c-.82-1.2-2.24-1.81-4.26-1.81a4.46,4.46,0,0,0-3.55,1.44,6.82,6.82,0,0,0-1.26,4.56Z"></path> <path class="cls-6" d="M150.08,47.36a8,8,0,0,1-6.22,2.49,7.59,7.59,0,0,1-5.57-1.91,7.68,7.68,0,0,1-2-5.6V28.78h6.07V42.15c0,2.16,1.08,3.23,3.23,3.23s3.47-.65,4.25-2V28.78H156V49.46h-5.71l-.16-2.1Z"></path> <path class="cls-6" d="M173.68,49.46a5.83,5.83,0,0,1-.61-1.85,7.7,7.7,0,0,1-5.73,2.24,8.58,8.58,0,0,1-5.53-1.76,5.5,5.5,0,0,1-2.2-4.45,5.7,5.7,0,0,1,2.68-5Q165,36.82,170,36.81h2.79V35.63a3.18,3.18,0,0,0-.81-2.28,3.39,3.39,0,0,0-2.55-.85,3.89,3.89,0,0,0-2.4.66,2.14,2.14,0,0,0-.87,1.81h-6.07a5.19,5.19,0,0,1,1.21-3.32,8.08,8.08,0,0,1,3.45-2.39,13.62,13.62,0,0,1,5-.87,10.55,10.55,0,0,1,6.66,1.92,6.44,6.44,0,0,1,2.47,5.4v9a9.16,9.16,0,0,0,.91,4.45v.33Zm-5-3.84a5.73,5.73,0,0,0,2.48-.54,3.84,3.84,0,0,0,1.67-1.47V40.06h-2.26q-4.56,0-4.85,2.86l0,.33a2.15,2.15,0,0,0,.8,1.7,3.28,3.28,0,0,0,2.19.67Z"></path> <path class="cls-6" d="M193.36,48.64V18.07h10.72a14.31,14.31,0,0,1,7.22,1.81,12.7,12.7,0,0,1,5,5.17,15.92,15.92,0,0,1,1.78,7.61v1.41a16,16,0,0,1-1.75,7.57,12.54,12.54,0,0,1-5,5.15,14.44,14.44,0,0,1-7.2,1.85Zm6.3-25.46V43.56H204a6.86,6.86,0,0,0,5.64-2.4q2-2.43,2-6.91V32.64c0-3.1-.65-5.46-1.94-7.06a6.81,6.81,0,0,0-5.65-2.4Z"></path> <polygon class="cls-6" points="252.53 49.46 246.44 49.46 246.44 20.09 252.53 20.09 252.53 49.46 252.53 49.46"></polygon> <path class="cls-6" d="M263.92,49.46h-6.08V28.78h6.08V49.46Z"></path> <polygon class="cls-6" points="277.43 42.71 281.64 28.78 287.98 28.78 280.32 49.46 274.52 49.46 266.86 28.78 273.2 28.78 277.43 42.71 277.43 42.71"></polygon> <path class="cls-6" d="M326.4,33.94a18.42,18.42,0,0,0-2.18-.15q-3.45,0-4.52,2.12V49.46h-6.07V28.78h5.74l.16,2.45a5.71,5.71,0,0,1,5.06-2.84,6.8,6.8,0,0,1,1.89.25l-.08,5.3Z"></path> <path class="cls-6" d="M339.49,41.64l4.2-12.86h6.51l-9.14,23.88-.5,1.08a7,7,0,0,1-6.72,4.06,10.56,10.56,0,0,1-2.69-.37v-4.2l.93,0a5.42,5.42,0,0,0,2.57-.47A3.18,3.18,0,0,0,336,51.19l.71-1.69-7.95-20.72h6.53l4.22,12.86Z"></path> <circle class="cls-6" cx="260.88" cy="23.13" r="3.04"></circle> <path class="cls-6" d="M242,38.66q0-4.92-2.67-7.6A9.94,9.94,0,0,0,232,28.39a11.28,11.28,0,0,0-5.53,1.33,9.13,9.13,0,0,0-3.75,3.79,11.55,11.55,0,0,0-1.33,5.57v.53a9.47,9.47,0,0,0,3.14,7.44,11.8,11.8,0,0,0,8.14,2.8,13,13,0,0,0,5.16-1,8.92,8.92,0,0,0,3.7-2.74l-3.23-3.42a6.15,6.15,0,0,1-5.14,2.77,6.22,6.22,0,0,1-2.37-.47,5.1,5.1,0,0,1-1.47-.84c-.14-.11-.27-.24-.4-.36a6.31,6.31,0,0,1-1.73-2.87H242Zm-14.78-1.5a4.3,4.3,0,1,1,8.6,0Z"></path> <path class="cls-6" d="M310,38.86q0-4.92-2.67-7.6A9.93,9.93,0,0,0,300,28.58a11.29,11.29,0,0,0-5.53,1.34,9.11,9.11,0,0,0-3.75,3.78,11.6,11.6,0,0,0-1.32,5.57v.54a9.46,9.46,0,0,0,3.13,7.44A11.82,11.82,0,0,0,300.65,50a13.07,13.07,0,0,0,5.16-1,9,9,0,0,0,3.69-2.74l-3.23-3.42a6.17,6.17,0,0,1-7.51,2.3,5.1,5.1,0,0,1-1.47-.84,4.59,4.59,0,0,1-.39-.37,6.21,6.21,0,0,1-1.74-2.86H310Zm-14.78-1.5a4.3,4.3,0,1,1,8.6,0Z"></path> </svg> 